# xmcd
#
# Track frame offsets:
#	150
#	13818
#	27371
#	40449
#	51625
#	63957
#	76454
#	88648
#	101349
#	113096
#	125236
#	138586
#	151360
#	162711
#	174294
#	186508
#
# Disc length: 2636 seconds
#
# Revision: 1
# Processed by: cddbd v1.4PL0 Copyright (c) Steve Scherf et al.
# Submitted via: CDmax 1.8
#
DISCID=e40a4a10
DTITLE=Sonny Boy Williamson - Eysight To The Blind
DYEAR=1900
DGENRE=Blues
TTITLE0=Eysight To The Blind
TTITLE1=Crazy About You Baby
TTITLE2=Stop Crying
TTITLE3=Do it If You Want
TTITLE4=Cool, Cool Blues
TTITLE5=Come On Back Home
TTITLE6=I Cross My Heart
TTITLE7=West Memphis Blues
TTITLE8=Sonny Boy's Christmas Blues
TTITLE9=Pontiac Blues
TTITLE10=Mighty Long Time
TTITLE11=Nine Below Zero
TTITLE12=She Brought Live Back To The Dead
TTITLE13=To Close Together
TTITLE14=Stop Now Baby
TTITLE15=Mr. Down Child
EXTD=
EXTT0=
EXTT1=
EXTT2=
EXTT3=
EXTT4=
EXTT5=
EXTT6=
EXTT7=
EXTT8=
EXTT9=
EXTT10=
EXTT11=
EXTT12=
EXTT13=
EXTT14=
EXTT15=
PLAYORDER=
